<?xml version="1.0" standalone="no"?><!DOCTYPE svg PUBLIC "-//W3C//DTD SVG 1.1//EN" "http://www.w3.org/Graphics/SVG/1.1/DTD/svg11.dtd"><svg t="1618899665496" class="icon" viewBox="0 0 1024 1024" version="1.1" xmlns="http://www.w3.org/2000/svg" p-id="3229" xmlns:xlink="http://www.w3.org/1999/xlink" width="200" height="200"><defs><style type="text/css"></style></defs><path d="M443.733333 375.466667 273.066667 375.466667l0 68.266667 170.666667 0L443.733333 375.466667zM443.733333 238.933333 273.066667 238.933333l0 68.266667 170.666667 0L443.733333 238.933333zM273.066667 580.266667l477.866667 0 0-68.266667L273.066667 512 273.066667 580.266667zM682.666667 0 170.666667 0C118.749867 0 68.266667 50.4832 68.266667 102.4l0 819.2c0 51.9168 50.4832 102.4 102.4 102.4l682.666667 0c51.9168 0 102.4-50.4832 102.4-102.4L955.733333 273.066667 682.666667 0zM648.533333 68.266667l204.8 204.8-136.533333 0c-34.6112 0-68.266667-33.655467-68.266667-68.266667L648.533333 68.266667zM887.466667 887.466667c0 34.6112-33.655467 68.266667-68.266667 68.266667L204.8 955.733333c-34.6112 0-68.266667-33.655467-68.266667-68.266667L136.533333 136.533333c0-34.6112 33.655467-68.266667 68.266667-68.266667l375.466667 0 0 204.8c0 51.950933 16.349867 68.266667 68.266667 68.266667l238.933333 0L887.466667 887.466667zM273.066667 716.8l477.866667 0 0-68.266667L273.066667 648.533333 273.066667 716.8zM273.066667 853.333333l477.866667 0 0-68.266667L273.066667 785.066667 273.066667 853.333333z" p-id="3230"></path></svg>