<?xml version="1.0" standalone="no"?><!DOCTYPE svg PUBLIC "-//W3C//DTD SVG 1.1//EN" "http://www.w3.org/Graphics/SVG/1.1/DTD/svg11.dtd"><svg t="1618899579676" class="icon" viewBox="0 0 1024 1024" version="1.1" xmlns="http://www.w3.org/2000/svg" p-id="2027" xmlns:xlink="http://www.w3.org/1999/xlink" width="200" height="200"><defs><style type="text/css"></style></defs><path d="M187.392 914.944c-14.848 0-26.624-11.776-26.624-26.624v-71.68c0-142.848 86.528-269.824 221.184-323.072l15.36-6.144-12.8-10.24C334.336 437.76 305.152 378.88 305.152 315.904c0-113.152 92.672-205.312 206.336-205.312s206.336 92.16 206.336 205.312c0 62.976-28.672 121.856-79.36 161.28l-12.8 10.24 15.36 6.144c134.144 53.248 221.184 180.224 221.184 323.072v71.68c0 14.336-11.776 26.624-26.624 26.624H187.392z m324.096-393.728c-163.84 0-297.472 132.608-297.472 295.424v45.056H808.96v-45.056c-0.512-162.816-133.632-295.424-297.472-295.424z m0-357.376c-84.48 0-153.6 68.608-153.6 152.576s68.608 152.576 153.6 152.576c84.48 0 153.6-68.608 153.6-152.576S595.968 163.84 511.488 163.84zM43.52 807.424c-14.848 0-26.624-11.776-26.624-26.624v-55.296c0-103.936 57.344-198.144 150.016-245.248l10.752-5.632L168.96 465.92c-28.672-31.232-44.544-71.68-44.544-113.664 0-89.6 72.192-164.864 162.304-169.472-14.336 18.944-24.576 38.912-32.256 60.928-45.568 15.872-76.8 59.904-76.8 108.544 0 45.568 27.136 87.04 69.12 105.984 11.776 4.608 18.944 13.824 18.944 24.576 0 10.752-7.68 20.992-19.456 24.576l-6.144 1.536c-100.352 25.088-169.984 114.176-169.984 217.088v28.672h33.792c-3.072 17.408-4.608 35.328-5.12 52.736H43.52z m880.128 0c-0.512-17.408-2.048-35.328-5.12-52.736h33.792v-28.672c0-102.4-70.144-192-169.984-217.088l-7.168-1.536c-10.752-3.584-18.432-13.824-18.432-24.576 0-10.752 7.168-19.968 18.432-24.576 42.496-18.944 69.632-60.928 69.632-106.496 0-48.64-31.232-92.672-77.824-109.568-6.656-20.992-17.408-41.472-31.232-59.904 89.6 4.096 162.304 79.36 162.304 169.472 0 41.984-15.872 82.432-44.544 113.664l-8.192 9.216 10.752 5.632c92.16 47.616 149.504 141.312 149.504 245.248v55.296c0 14.336-11.776 26.624-26.624 26.624h-55.296z" p-id="2028"></path></svg>