<?xml version="1.0" standalone="no"?><!DOCTYPE svg PUBLIC "-//W3C//DTD SVG 1.1//EN" "http://www.w3.org/Graphics/SVG/1.1/DTD/svg11.dtd"><svg t="1618899627116" class="icon" viewBox="0 0 1024 1024" version="1.1" xmlns="http://www.w3.org/2000/svg" p-id="2785" xmlns:xlink="http://www.w3.org/1999/xlink" width="200" height="200"><defs><style type="text/css"></style></defs><path d="M948.676923 327.286154c-23.827692-56.221538-57.796923-106.633846-101.12-149.956923s-93.833846-77.390769-149.956923-101.12c-58.190769-24.615385-119.926154-37.12-183.630769-37.12S388.529231 51.593846 330.338462 76.209231c-56.221538 23.827692-106.633846 57.796923-149.956924 101.12s-77.390769 93.833846-101.12 149.956923c-24.615385 58.190769-37.12 119.926154-37.12 183.630769s12.504615 125.44 37.12 183.630769c23.827692 56.221538 57.796923 106.633846 101.12 149.956923s93.833846 77.390769 149.956924 101.12c58.190769 24.615385 119.926154 37.12 183.630769 37.12 127.015385 0 245.070769-46.572308 332.504615-131.150769 43.815385-42.436923 78.08-92.750769 101.907692-149.366154 24.812308-59.076923 37.415385-123.470769 37.415385-191.310769 0-63.704615-12.504615-125.44-37.12-183.630769z m-36.726154 359.876923c-21.76 51.692308-53.070769 97.575385-93.046154 136.270769-79.950769 77.292308-188.16 119.926154-304.935384 119.926154-58.387692 0-115.003077-11.421538-168.270769-33.969231-51.495385-21.76-97.772308-52.972308-137.452308-92.652307-39.68-39.778462-70.892308-85.956923-92.652308-137.452308C93.046154 626.018462 81.624615 569.403077 81.624615 511.015385s11.421538-115.003077 33.969231-168.27077c21.76-51.495385 52.873846-97.772308 92.652308-137.452307s85.956923-70.892308 137.452308-92.652308C398.966154 90.092308 455.581538 78.670769 513.969231 78.670769s115.003077 11.421538 168.270769 34.067693c51.495385 21.76 97.772308 52.972308 137.452308 92.652307 39.68 39.778462 70.892308 85.956923 92.652307 137.452308 22.547692 53.267692 33.969231 109.883077 33.969231 168.270769 0 62.523077-11.52 121.796923-34.363077 176.049231z" fill="" p-id="2786"></path><path d="M729.6 431.556923c10.830769 0 19.692308-8.861538 19.692308-19.692308s-8.861538-19.692308-19.692308-19.692307H567.138462l114.313846-114.215385c7.68-7.68 7.68-20.184615 0-27.864615s-20.184615-7.68-27.864616 0L512.984615 390.596923 372.381538 249.993846c-7.68-7.68-20.184615-7.68-27.864615 0-7.68 7.68-7.68 20.184615 0 27.864616l114.412308 114.313846H297.353846c-10.830769 0-19.692308 8.861538-19.692308 19.692307s8.861538 19.692308 19.692308 19.692308h195.938462v117.956923H297.353846c-10.830769 0-19.692308 8.861538-19.692308 19.692308s8.861538 19.692308 19.692308 19.692308h195.938462V766.030769c0 10.830769 8.861538 19.692308 19.692307 19.692308s19.692308-8.861538 19.692308-19.692308V588.898462h196.923077c10.830769 0 19.692308-8.861538 19.692308-19.692308s-8.861538-19.692308-19.692308-19.692308H532.676923V431.556923h196.923077z" fill="" p-id="2787"></path></svg>