<?xml version="1.0" standalone="no"?><!DOCTYPE svg PUBLIC "-//W3C//DTD SVG 1.1//EN" "http://www.w3.org/Graphics/SVG/1.1/DTD/svg11.dtd"><svg t="1622786537883" class="icon" viewBox="0 0 1024 1024" version="1.1" xmlns="http://www.w3.org/2000/svg" p-id="3628" xmlns:xlink="http://www.w3.org/1999/xlink" width="200" height="200"><defs><style type="text/css"></style></defs><path d="M832 199.111111h-640C133.333333 199.111111 85.333333 246.044444 85.333333 303.402667v417.194666C85.333333 777.955556 133.333333 824.888889 192 824.888889h640c58.666667 0 106.666667-46.933333 106.666667-104.291556V303.402667C938.666667 246.044444 890.666667 199.111111 832 199.111111z" fill="#4077FF" p-id="3629"></path><path d="M580.920889 419.214222h98.019555c14.705778 0 24.519111 9.884444 24.519112 24.718222 0 14.833778-9.813333 24.718222-24.519112 24.718223h-98.019555c-14.705778 0-24.504889-9.884444-24.504889-24.718223 0-14.833778 9.813333-24.718222 24.504889-24.718222zM345.671111 369.777778c39.210667 0 73.514667 34.602667 73.514667 74.154666 0 39.537778-34.304 74.154667-73.528889 74.154667-39.196444 0-73.514667-34.616889-73.514667-74.154667 0-39.537778 29.411556-74.154667 73.528889-74.154666zM428.984889 666.382222H257.450667A44.117333 44.117333 0 0 1 213.333333 621.895111c0-49.436444 39.210667-88.988444 83.313778-88.988444h88.234667c49.009778 0 88.220444 39.552 83.313778 88.988444 4.906667 24.718222-14.705778 44.487111-39.210667 44.487111zM776.96 666.382222H580.935111c-14.705778 0-24.504889-9.884444-24.504889-24.718222 0-14.833778 9.813333-24.718222 24.504889-24.718222h196.053333c14.705778 0 24.504889 9.884444 24.504889 24.718222 0 14.833778-9.813333 24.718222-24.504889 24.718222zM776.96 567.509333h-98.019556c-14.691556 0-24.504889-9.884444-24.504888-24.704 0-14.833778 9.813333-24.718222 24.504888-24.718222h98.033778c14.705778 0 24.504889 9.884444 24.504889 24.718222 0 14.819556-9.813333 24.704-24.504889 24.704z" fill="#F9CF59" p-id="3630"></path></svg>