<?xml version="1.0" standalone="no"?><!DOCTYPE svg PUBLIC "-//W3C//DTD SVG 1.1//EN" "http://www.w3.org/Graphics/SVG/1.1/DTD/svg11.dtd"><svg t="1622786518220" class="icon" viewBox="0 0 1024 1024" version="1.1" xmlns="http://www.w3.org/2000/svg" p-id="3050" xmlns:xlink="http://www.w3.org/1999/xlink" width="200" height="200"><defs><style type="text/css"></style></defs><path d="M829.248 840.576h10.432a27.712 27.712 0 0 1 0 55.424H155.84a27.712 27.712 0 1 1 0-55.424h9.664V192.704A64.64 64.64 0 0 1 230.144 128h378.304a64.64 64.64 0 0 1 64.64 64.704v147.904h91.52a64.64 64.64 0 0 1 64.64 64.64v435.2z m-55.424 0V404.992a9.216 9.216 0 0 0-9.216-9.216H673.28v444.544h100.736z m-552.896 0h396.8V192.704a9.216 9.216 0 0 0-9.216-9.28H230.144a9.216 9.216 0 0 0-9.216 9.28v647.872z m131.52-341.44a27.712 27.712 0 1 1 0-55.424H494.08a27.712 27.712 0 1 1 0 55.424H352.448z m0 203.2a27.712 27.712 0 1 1 0-55.424H494.08a27.712 27.712 0 1 1 0 55.424H352.448z m0 0" fill="#409EFF" p-id="3051"></path></svg>