<?xml version="1.0" standalone="no"?><!DOCTYPE svg PUBLIC "-//W3C//DTD SVG 1.1//EN" "http://www.w3.org/Graphics/SVG/1.1/DTD/svg11.dtd"><svg t="1623224096713" class="icon" viewBox="0 0 1024 1024" version="1.1" xmlns="http://www.w3.org/2000/svg" p-id="27096" xmlns:xlink="http://www.w3.org/1999/xlink" width="200" height="200"><defs><style type="text/css"></style></defs><path d="M864 554.667a32 32 0 0 1 32 32v234.666a32 32 0 0 1-27.648 31.702l-4.352 0.298H160a32 32 0 0 1-32-32V586.667a32 32 0 1 1 64 0V789.29l640 0.042V586.667a32 32 0 0 1 32-32zM523.477 174.592l2.774 2.56 193.194 211.797a23.21 23.21 0 0 1 5.888 15.616c0 10.838-7.125 19.883-16.512 21.76l-3.626 0.342H576v170.666a21.333 21.333 0 0 1-21.333 21.334h-85.334A21.333 21.333 0 0 1 448 597.333V426.667H318.805a18.987 18.987 0 0 1-11.818-4.224l-2.432-2.262a23.723 23.723 0 0 1-2.56-27.733l2.56-3.499 193.194-211.797c6.998-7.68 17.835-8.533 25.728-2.56z" fill="#2489F2" p-id="27097"></path></svg>