<?xml version="1.0" standalone="no"?><!DOCTYPE svg PUBLIC "-//W3C//DTD SVG 1.1//EN" "http://www.w3.org/Graphics/SVG/1.1/DTD/svg11.dtd"><svg t="1623224150902" class="icon" viewBox="0 0 1025 1024" version="1.1" xmlns="http://www.w3.org/2000/svg" p-id="27921" xmlns:xlink="http://www.w3.org/1999/xlink" width="200.1953125" height="200"><defs><style type="text/css"></style></defs><path d="M620.662572 949.582667H172.021284a99.121821 99.121821 0 0 1-99.121822-99.194866V172.093597A99.121821 99.121821 0 0 1 172.021284 72.898731h678.221159c26.296135 0 51.569643 10.372365 70.123027 29.071838 18.772519 18.699474 28.998794 43.607758 28.998794 70.123028l-1.533941 448.568243V620.880975a36.52241 36.52241 0 0 0 73.044821 0.073045l1.533941-448.641288v-0.14609A172.093597 172.093597 0 0 0 850.242443-0.073045H172.021284A171.947508 171.947508 0 0 0-0.072313 172.093597v678.294204a171.947508 171.947508 0 0 0 172.093597 172.093597h448.641288a36.52241 36.52241 0 0 0 0-72.971776z" fill="#0587FF" p-id="27922"></path><path d="M1011.817586 960.247211l-139.296473-139.369518a219.353596 219.353596 0 1 0-51.642688 51.642689l139.369517 139.296472a36.52241 36.52241 0 1 0 51.569644-51.569643zM693.926527 840.015436a146.089641 146.089641 0 1 1 0-292.179282 146.089641 146.089641 0 0 1 0 292.179282zM803.493758 328.920827a36.52241 36.52241 0 0 0 0-73.19091L219.135193 255.656872A36.52241 36.52241 0 0 0 219.135193 328.701693l584.358565 0.219134zM438.269655 547.909199a36.52241 36.52241 0 1 0 0-73.044821H219.135193A36.52241 36.52241 0 1 0 219.135193 547.836154h219.134462zM219.135193 693.85275a36.52241 36.52241 0 0 0 0 72.898731h146.089641A36.52241 36.52241 0 1 0 365.224834 693.925795l-146.089641-0.073045z" fill="#0587FF" p-id="27923"></path></svg>